<svg xmlns="http://www.w3.org/2000/svg" viewBox="0 0 92 92"><path fill="rgb(242,242,242)" d="M79.647 46c0-18.57-15.076-33.648-33.647-33.648-18.57 0-33.647 15.078-33.647 33.648 0 18.57 15.076 33.647 33.647 33.647 18.57 0 33.647-15.077 33.647-33.647z"/><path fill="rgb(255,87,140)" d="M80.715 46c0-19.16-15.555-34.715-34.715-34.715-19.16 0-34.715 15.556-34.715 34.715 0 19.16 15.555 34.714 34.715 34.714 19.16 0 34.715-15.555 34.715-34.714z"/><g fill="rgb(242,242,242)"><path d="M58.308 29.122a1.981 1.981 0 00-2.801 0L29.121 55.508a1.982 1.982 0 000 2.8l4.57 4.57a1.982 1.982 0 002.801 0l26.386-26.385a1.981 1.981 0 000-2.801l-4.57-4.57z"/><path d="M33.692 29.122a1.981 1.981 0 012.801 0L62.88 55.508a1.982 1.982 0 010 2.8l-4.57 4.57a1.982 1.982 0 01-2.801 0L29.122 36.494a1.981 1.981 0 010-2.801l4.57-4.57z"/></g></svg>