<svg xmlns="http://www.w3.org/2000/svg" viewBox="0 0 92 92"><path fill="rgb(242,242,242)" d="M87.227 46c0-22.754-18.473-41.228-41.226-41.228C23.246 4.772 4.773 23.246 4.773 46S23.246 87.227 46 87.227c22.753 0 41.226-18.473 41.226-41.227z"/><path fill="rgb(255,165,87)" d="M88.81 46C88.81 22.372 69.629 3.19 46 3.19 22.373 3.189 3.19 22.372 3.19 46S22.371 88.81 46 88.81c23.628 0 42.81-19.182 42.81-42.81zm-3.8 0c0 21.53-17.48 39.01-39.01 39.01C24.47 85.01 6.99 67.53 6.99 46 6.99 24.47 24.47 6.99 46 6.99c21.53 0 39.01 17.48 39.01 39.01z"/><path fill="rgb(242,242,242)" d="M79.647 46c0-18.57-15.076-33.648-33.647-33.648-18.57 0-33.647 15.078-33.647 33.648 0 18.57 15.076 33.647 33.647 33.647 18.57 0 33.647-15.077 33.647-33.647z"/><path fill="rgb(255,165,87)" d="M80.715 46c0-19.16-15.555-34.715-34.715-34.715-19.16 0-34.715 15.556-34.715 34.715 0 19.16 15.555 34.714 34.715 34.714 19.16 0 34.715-15.555 34.715-34.714z"/><g fill="rgb(242,242,242)"><path d="M58.308 29.122a1.981 1.981 0 00-2.801 0L29.121 55.508a1.982 1.982 0 000 2.8l4.57 4.57a1.982 1.982 0 002.801 0l26.386-26.385a1.981 1.981 0 000-2.801l-4.57-4.57z"/><path d="M33.692 29.122a1.981 1.981 0 012.801 0L62.88 55.508a1.982 1.982 0 010 2.8l-4.57 4.57a1.982 1.982 0 01-2.801 0L29.122 36.494a1.981 1.981 0 010-2.801l4.57-4.57z"/></g></svg>