<svg xmlns="http://www.w3.org/2000/svg" viewBox="0 0 92 92"><path fill="rgb(242,242,242)" d="M79.647 46c0-18.57-15.076-33.648-33.647-33.648-18.57 0-33.647 15.078-33.647 33.648 0 18.57 15.076 33.647 33.647 33.647 18.57 0 33.647-15.077 33.647-33.647z"/><path fill="rgb(155,155,155)" d="M80.758 46c0-19.183-15.574-34.758-34.758-34.758-19.184 0-34.758 15.575-34.758 34.758 0 19.183 15.574 34.757 34.758 34.757 19.184 0 34.758-15.574 34.758-34.757zm-2.484 0c0 17.813-14.462 32.274-32.274 32.274S13.726 63.813 13.726 46c0-17.813 14.462-32.274 32.274-32.274S78.274 28.187 78.274 46z"/></svg>