<svg xmlns="http://www.w3.org/2000/svg" viewBox="0 0 92 92"><path fill="rgb(10,10,10)" d="M87.227 46c0-22.754-18.473-41.228-41.226-41.228C23.246 4.772 4.773 23.246 4.773 46S23.246 87.227 46 87.227c22.753 0 41.226-18.473 41.226-41.227z"/><path fill="rgb(70,166,241)" d="M88.81 46C88.81 22.372 69.629 3.19 46 3.19 22.373 3.189 3.19 22.372 3.19 46S22.371 88.81 46 88.81c23.628 0 42.81-19.182 42.81-42.81zm-3.8 0c0 21.53-17.48 39.01-39.01 39.01C24.47 85.01 6.99 67.53 6.99 46 6.99 24.47 24.47 6.99 46 6.99c21.53 0 39.01 17.48 39.01 39.01z"/><path fill="rgb(10,10,10)" d="M79.647 46c0-18.57-15.076-33.648-33.647-33.648-18.57 0-33.647 15.078-33.647 33.648 0 18.57 15.076 33.647 33.647 33.647 18.57 0 33.647-15.077 33.647-33.647z"/><path fill="rgb(156,156,156)" d="M80.715 46c0-19.16-15.555-34.715-34.715-34.715-19.16 0-34.715 15.556-34.715 34.715 0 19.16 15.555 34.714 34.715 34.714 19.16 0 34.715-15.555 34.715-34.714z"/><g fill="rgb(10,10,10)"><path d="M49.261 58.833a1.981 1.981 0 00-.407-2.771L32.108 43.607a1.982 1.982 0 00-2.772.407L25.48 49.2a1.98 1.98 0 00.407 2.771l16.746 12.455a1.98 1.98 0 002.771-.407l3.857-5.186z"/><path d="M61.997 27.44a1.981 1.981 0 00-2.771.41L37 57.826c-.65.877-.467 2.12.412 2.77l5.191 3.85c.878.651 2.12.466 2.77-.411L67.6 34.059a1.981 1.981 0 00-.411-2.77l-5.191-3.85z"/></g></svg>