<svg xmlns="http://www.w3.org/2000/svg" viewBox="0 0 92 92"><path d="M87.227 46c0-22.754-18.473-41.228-41.226-41.228C23.246 4.772 4.773 23.246 4.773 46S23.246 87.227 46 87.227c22.753 0 41.226-18.473 41.226-41.227z" fill="#f2f2f2"/><path d="M88.81 46C88.81 22.372 69.629 3.19 46 3.19 22.373 3.189 3.19 22.372 3.19 46S22.371 88.81 46 88.81c23.628 0 42.81-19.182 42.81-42.81zm-3.8 0c0 21.53-17.48 39.01-39.01 39.01C24.47 85.01 6.99 67.53 6.99 46 6.99 24.47 24.47 6.99 46 6.99c21.53 0 39.01 17.48 39.01 39.01z" fill="#46a6f1"/><path d="M79.647 46c0-18.57-15.076-33.648-33.647-33.648-18.57 0-33.647 15.078-33.647 33.648 0 18.57 15.076 33.647 33.647 33.647 18.57 0 33.647-15.077 33.647-33.647z" fill="#f2f2f2"/><path d="M80.758 46c0-19.183-15.574-34.758-34.758-34.758-19.184 0-34.758 15.575-34.758 34.758 0 19.183 15.574 34.757 34.758 34.757 19.184 0 34.758-15.574 34.758-34.757zm-2.484 0c0 17.813-14.462 32.274-32.274 32.274S13.726 63.813 13.726 46c0-17.813 14.462-32.274 32.274-32.274S78.274 28.187 78.274 46z" fill="#9b9b9b"/></svg>