<svg xmlns="http://www.w3.org/2000/svg" viewBox="0 0 500 500"><path d="M360.551 131.741c-30.126-28.208-69.22-43.67-110.696-43.633-74.643.065-139.083 51.245-156.874 122.24-1.296 5.167-5.9 8.817-11.228 8.817h-55.22c-7.225 0-12.714-6.56-11.378-13.662C36.005 94.78 133.218 11.015 250.001 11.015c64.033 0 122.183 25.186 165.089 66.189l34.416-34.417c14.57-14.57 39.481-4.251 39.481 16.354v129.186c0 12.774-10.354 23.128-23.128 23.128H336.673c-20.605 0-30.924-24.911-16.354-39.482l40.232-40.232zM34.143 288.547H163.33c20.605 0 30.924 24.912 16.354 39.482l-40.232 40.233c30.126 28.209 69.224 43.671 110.7 43.634 74.604-.068 139.07-51.212 156.87-122.239 1.296-5.167 5.9-8.817 11.228-8.817h55.222c7.225 0 12.713 6.56 11.377 13.66-20.851 110.722-118.064 194.487-234.847 194.487-64.033 0-122.183-25.186-165.089-66.189l-34.416 34.418c-14.57 14.57-39.48 4.25-39.48-16.355V311.675c0-12.773 10.353-23.128 23.127-23.128z" fill="#4d4d4d" fill-rule="nonzero"/></svg>