<svg xmlns="http://www.w3.org/2000/svg" viewBox="0 0 500 500" fill-rule="evenodd"><path d="M494.909 112.606c0-36.426-29.573-66-66-66H71.091c-36.427 0-66 29.574-66 66v274.788c0 36.426 29.573 66 66 66h357.818c36.427 0 66-29.574 66-66V112.606zm-267.832 179.49l-57.372-42.67c-5.058-3.763-12.22-2.71-15.983 2.349l-22.246 29.911c-3.763 5.059-2.71 12.22 2.349 15.983l96.409 71.934c3.663 2.716 8.421 2.912 12.196.896a11.364 11.364 0 003.956-3.349L368.39 202.367c3.756-5.064 2.693-12.225-2.372-15.98l-29.943-22.202c-5.064-3.756-12.225-2.693-15.98 2.372l-93.018 125.539zM71.539 86.556c11.453 0 20.752 9.299 20.752 20.753 0 11.453-9.299 20.753-20.752 20.753-11.454 0-20.753-9.3-20.753-20.753 0-11.454 9.299-20.753 20.753-20.753zm66 0c11.453 0 20.752 9.299 20.752 20.753 0 11.453-9.299 20.753-20.752 20.753-11.454 0-20.753-9.3-20.753-20.753 0-11.454 9.299-20.753 20.753-20.753zm66 0c11.453 0 20.752 9.299 20.752 20.753 0 11.453-9.299 20.753-20.752 20.753-11.454 0-20.753-9.3-20.753-20.753 0-11.454 9.299-20.753 20.753-20.753z" fill="#626262"/></svg>